<svg width="16" height="21" viewBox="0 0 16 21" fill="none" xmlns="http://www.w3.org/2000/svg">
<path d="M13.3175 3.13934C11.573 3.13934 10.07 1.29174 8.40854 0.760005C8.16379 0.681675 7.9028 0.639343 7.63198 0.639343C7.36115 0.639343 7.10016 0.681675 6.85541 0.760005C5.19398 1.29174 3.69094 3.13934 1.94649 3.13934C0.900205 3.13934 0.0513306 3.97919 0.0513306 5.01434V18.7643C0.0513306 19.7995 0.900205 20.6393 1.94649 20.6393H13.3175C14.3637 20.6393 15.2126 19.7995 15.2126 18.7643V5.01434C15.2126 3.97919 14.3637 3.13934 13.3175 3.13934ZM3.84165 17.2018C3.31654 17.2018 2.89407 16.7839 2.89407 16.2643C2.89407 15.7448 3.31654 15.3268 3.84165 15.3268C4.36677 15.3268 4.78923 15.7448 4.78923 16.2643C4.78923 16.7839 4.36677 17.2018 3.84165 17.2018ZM3.84165 13.4518C3.31654 13.4518 2.89407 13.0339 2.89407 12.5143C2.89407 11.9948 3.31654 11.5768 3.84165 11.5768C4.36677 11.5768 4.78923 11.9948 4.78923 12.5143C4.78923 13.0339 4.36677 13.4518 3.84165 13.4518ZM3.84165 9.70184C3.31654 9.70184 2.89407 9.28387 2.89407 8.76434C2.89407 8.24481 3.31654 7.82684 3.84165 7.82684C4.36677 7.82684 4.78923 8.24481 4.78923 8.76434C4.78923 9.28387 4.36677 9.70184 3.84165 9.70184ZM7.63198 2.20184C8.15709 2.20184 8.57956 2.61981 8.57956 3.13934C8.57956 3.65887 8.15709 4.07684 7.63198 4.07684C7.10686 4.07684 6.6844 3.65887 6.6844 3.13934C6.6844 2.61981 7.10686 2.20184 7.63198 2.20184ZM12.6857 16.5768C12.6857 16.7487 12.5436 16.8893 12.3699 16.8893H6.6844C6.51067 16.8893 6.36854 16.7487 6.36854 16.5768V15.9518C6.36854 15.78 6.51067 15.6393 6.6844 15.6393H12.3699C12.5436 15.6393 12.6857 15.78 12.6857 15.9518V16.5768ZM12.6857 12.8268C12.6857 12.9987 12.5436 13.1393 12.3699 13.1393H6.6844C6.51067 13.1393 6.36854 12.9987 6.36854 12.8268V12.2018C6.36854 12.03 6.51067 11.8893 6.6844 11.8893H12.3699C12.5436 11.8893 12.6857 12.03 12.6857 12.2018V12.8268ZM12.6857 9.07684C12.6857 9.24872 12.5436 9.38934 12.3699 9.38934H6.6844C6.51067 9.38934 6.36854 9.24872 6.36854 9.07684V8.45184C6.36854 8.27997 6.51067 8.13934 6.6844 8.13934H12.3699C12.5436 8.13934 12.6857 8.27997 12.6857 8.45184V9.07684Z" fill="#00629B"/>
</svg>
