<svg width="18" height="19" viewBox="0 0 18 19" fill="none" xmlns="http://www.w3.org/2000/svg">
<path d="M12.968 11.6595H12.178L11.898 11.3895C12.878 10.2495 13.468 8.76945 13.468 7.15945C13.468 3.56945 10.558 0.659454 6.96802 0.659454C3.37802 0.659454 0.468018 3.56945 0.468018 7.15945C0.468018 10.7495 3.37802 13.6595 6.96802 13.6595C8.57802 13.6595 10.058 13.0695 11.198 12.0895L11.468 12.3695V13.1595L16.468 18.1495L17.958 16.6595L12.968 11.6595ZM6.96802 11.6595C4.47802 11.6595 2.46802 9.64945 2.46802 7.15945C2.46802 4.66945 4.47802 2.65945 6.96802 2.65945C9.45802 2.65945 11.468 4.66945 11.468 7.15945C11.468 9.64945 9.45802 11.6595 6.96802 11.6595Z" fill="#C4C4C4"/>
</svg>
